<svg width="35" height="35" viewBox="0 0 35 35" fill="currentColor" xmlns="http://www.w3.org/2000/svg">
<path d="M34.4776 3.80377C34.4776 1.70454 32.7731 -2.59741e-05 30.6738 -2.59741e-05L3.80379 -2.85872e-05C1.70456 -2.86715e-05 3.67662e-06 1.70453 3.76092e-06 3.80375C3.84521e-06 5.90298 1.70457 7.60755 3.8038 7.60755L21.5044 7.60756L1.25517 27.8568C-0.231082 29.3431 -0.231083 31.7446 1.25517 33.2308C2.74142 34.7171 5.14293 34.7171 6.62918 33.2308L26.8784 12.9816L26.8785 30.6822C26.8785 32.7814 28.583 34.486 30.6823 34.486C32.7815 34.486 34.486 32.7814 34.486 30.6822L34.486 3.81217L34.4776 3.80377Z"/>
</svg>
