<?xml version="1.0" encoding="UTF-8" standalone="no"?>
<!-- Created with Inkscape (http://www.inkscape.org/) -->

<svg
   xmlns:dc="http://purl.org/dc/elements/1.1/"
   xmlns:cc="http://creativecommons.org/ns#"
   xmlns:rdf="http://www.w3.org/1999/02/22-rdf-syntax-ns#"
   xmlns:svg="http://www.w3.org/2000/svg"
   xmlns="http://www.w3.org/2000/svg"
   xmlns:sodipodi="http://sodipodi.sourceforge.net/DTD/sodipodi-0.dtd"
   xmlns:inkscape="http://www.inkscape.org/namespaces/inkscape"
   version="1.1"
   id="svg10"
   width="1803.7333"
   height="1862.4"
   viewBox="0 0 1803.7333 1862.4"
   sodipodi:docname="Subbots_logo.svg"
   inkscape:version="0.92.3 (2405546, 2018-03-11)"
   fill="currentColor">
  <metadata
     id="metadata16">
    <rdf:RDF>
      <cc:Work
         rdf:about="">
        <dc:format>image/svg+xml</dc:format>
        <dc:type
           rdf:resource="http://purl.org/dc/dcmitype/StillImage" />
        <dc:title></dc:title>
      </cc:Work>
    </rdf:RDF>
  </metadata>
  <defs
     id="defs14" />
  <sodipodi:namedview
     pagecolor="#ffffff"
     bordercolor="#666666"
     borderopacity="1"
     objecttolerance="10"
     gridtolerance="10"
     guidetolerance="10"
     inkscape:pageopacity="0"
     inkscape:pageshadow="2"
     inkscape:window-width="1440"
     inkscape:window-height="837"
     id="namedview12"
     showgrid="false"
     inkscape:zoom="0.25362292"
     inkscape:cx="1525.9791"
     inkscape:cy="343.2027"
     inkscape:window-x="1358"
     inkscape:window-y="-8"
     inkscape:window-maximized="1"
     inkscape:current-layer="svg10" />
  <path
     d="m 830.93334,1861.4438 c -0.88,-0.4902 -5.44,-1.1738 -10.1334,-1.5191 -4.6933,-0.3452 -10.9333,-1.1187 -13.8666,-1.7189 -2.9333,-0.6001 -9.6533,-1.8492 -14.9333,-2.7757 -5.28,-0.9266 -12,-2.1058 -14.9334,-2.6205 -2.9333,-0.5147 -8.4533,-1.4352 -12.2666,-2.0454 -3.8134,-0.6104 -11.2534,-1.8214 -16.5334,-2.6911 -5.28,-0.8699 -13.2,-2.1249 -17.6,-2.7892 -4.4,-0.6642 -12.08,-1.8904 -17.0666,-2.725 -4.9867,-0.8345 -11.9467,-1.9701 -15.4667,-2.5236 -3.52,-0.5534 -11.2572,-1.8101 -17.1937,-2.7925 l -10.7936,-1.7863 -0.715,-29.995 c -0.4943,-20.7368 -1.2447,-32.6286 -2.431,-38.5282 -4.983,-24.7795 -16.9127,-35.1692 -60.6,-52.777 -4.6934,-1.8917 -11.0665,-4.5906 -14.1625,-5.9978 -3.0961,-1.4071 -6.2401,-2.5585 -6.9867,-2.5585 -0.7466,0 -1.8135,-0.4015 -2.3708,-0.8923 -0.5574,-0.4907 -3.6534,-1.9782 -6.88,-3.3054 -14.1973,-5.8394 -58.1022,-27.3662 -74.6667,-36.6093 -20.5899,-11.4894 -22.7372,-12.7243 -28.5541,-16.4209 -3.0914,-1.9646 -5.8976,-3.5721 -6.2361,-3.5721 -1.8184,0 -49.2958,-32.3773 -72.7324,-49.6 -6.417,-4.7156 -40.2465,-30.8773 -40.7441,-31.509 -0.2933,-0.3724 -2.7405,-2.3152 -5.4381,-4.3173 -2.6976,-2.0023 -7.6087,-5.7312 -10.9135,-8.2869 l -6.0087,-4.6465 -7.7532,3.959 c -51.2977,26.1933 -76.8208,38.934 -77.9956,38.934 -0.782,0 -3.9451,-3 -7.0292,-6.6666 -3.0841,-3.6667 -8.0846,-9.3067 -11.1121,-12.5334 -3.0276,-3.2266 -7.1231,-7.7866 -9.1013,-10.1333 -1.9781,-2.3467 -5.5931,-6.4267 -8.0334,-9.0667 -2.4402,-2.64 -9.6214,-11.04 -15.9581,-18.6666 -6.3367,-7.6267 -12.4543,-14.9706 -13.5947,-16.3197 -3.8353,-4.5374 -28.6201,-37.6088 -29.7063,-39.6384 -0.5913,-1.105 -1.6783,-2.6463 -2.4155,-3.4254 -0.7371,-0.7791 -4.7003,-6.4565 -8.8069,-12.6165 -4.1067,-6.16 -7.7389,-11.44 -8.0716,-11.7334 -0.7692,-0.6782 -23.793,-37.322 -24.7974,-39.4666 -0.4122,-0.88 -1.6256,-3.04 -2.6966,-4.8 -1.071,-1.76 -3.2802,-5.6 -4.9092,-8.5334 -1.629003,-2.9333 -4.756503,-8.4533 -6.949803,-12.2666 -8.6871,-15.1032 -24.9846,-46.7929 -31.817,-61.8667 -1.7284,-3.8133 -4.2297,-9.3333 -5.5584,-12.2667 -1.3288,-2.9333 -3.8092,-8.382 -5.5121,-12.1083 -1.7028,-3.7263 -5.7432,-13.3263 -8.9785,-21.3334 -3.2354,-8.007 -6.2811,-15.5183 -6.7683,-16.6916 -0.4871,-1.1733 -1.7207,-4.2933 -2.7411,-6.9333 -1.0205,-2.64 -2.2395,-5.76 -2.7089,-6.9334 -0.4694,-1.1733 -2.0919,-5.6133 -3.6056,-9.8666 -1.5137,-4.2534 -3.9522,-11.0934 -5.4189,-15.2 -1.4666,-4.1067 -3.8666,-10.8267 -5.3333,-14.9334 -1.4667,-4.1066 -3.8345,-10.7066 -5.2618,-14.6666 -1.4272004,-3.96 -3.3396004,-9.4743 -4.2497004,-12.254 -0.91,-2.7797 -2.2502,-6.0078 -2.9783,-7.1736 -1.1202,-1.7938 -0.9999,-2.3751 0.7831,-3.7825 1.1587,-0.9145 3.0667,-2.1504 4.24,-2.7461 1.1734,-0.5958 17.4934004,-10.799 36.2667004,-22.6738 38.9139,-24.6145 35.6857,-20.9764 33.7514,-38.0367 -0.6319,-5.5733 -1.8917,-18.5333 -2.7996,-28.8 -0.9079,-10.2667 -2.1243,-23.9467 -2.7031,-30.4 -2.1963,-24.4872 -4.1839,-51.82926 -5.0011,-68.79996 -1.8987,-39.4253 -0.5313,-106.8635 2.8873,-142.4 0.6208,-6.4534 1.5915,-17.01337 2.157,-23.46671 2.1792,-24.86816 4.3317,-47.28219 5.3321,-55.52202 2.051,-16.89487 2.2844,-16.21389 -7.7591,-22.6455 -4.839,-3.0988 -9.7476,-6.2188 -10.9079,-6.93333 -1.1603,-0.71453 -5.6668,-3.57915 -10.0145,-6.36581 -4.3476,-2.78667 -8.0987,-5.06667 -8.3358,-5.06667 -1.2769,0 -13.3673,-9.72473 -18.154,-14.60196 -8.393,-8.55165 -10.2377,-13.43868 -10.1906,-26.99804 0.032,-9.17698 0.6181,-13.22302 3.2459,-22.4 2.7882,-9.73742 6.0726,-19.91504 8.7778,-27.2 1.4787,-3.98222 4.499,-11.72419 5.4097,-13.86667 0.4988,-1.17333 2.3758,-5.97333 4.1712,-10.66666 1.7954,-4.69334 3.6809,-9.49334 4.19,-10.66667 0.8474,-1.95262 3.1577,-7.45782 5.3717,-12.8 0.4863,-1.17333 2.1338,-4.90645 3.6612,-8.29583 1.5274,-3.38936 2.7771,-6.40939 2.7771,-6.71115 0,-0.95926 6.2894,-14.20665 17.1832,-36.19302 12.9669,-26.17017 22.3405,-43.62004 29.3767,-54.68738 1.9654,-3.09139 3.573403,-5.85664 3.573403,-6.14499 0,-0.28837 2.4,-4.3538 5.3333,-9.0343 2.9334,-4.6805 5.3334,-8.80115 5.3334,-9.157 0,-0.35585 1.08,-2.15115 2.4,-3.98954 1.32,-1.8384 2.88,-4.16796 3.4666,-5.17683 2.8582,-4.91507 17.2492,-26.93796 22.677,-34.70309 9.2462,-13.22792 26.6815,-37.23624 28.2258,-38.86675 0.7501,-0.79207 2.7865,-3.36012 4.5252,-5.70679 1.7388,-2.34666 3.6588,-4.78768 4.2667,-5.42447 0.6079,-0.6368 2.7853,-3.25313 4.8387,-5.81408 3.9047,-4.87009 9.7408,-11.8473 10.6743,-12.76145 0.2995,-0.29333 3.9003,-4.37333 8.0018,-9.06666 4.1015,-4.69334 10.0972,-11.35606 13.3239,-14.80604 3.2266,-3.44998 6.3466,-6.82173 6.9333,-7.49277 1.4086,-1.61122 18.8943,-21.10469 20.2658,-22.59286 0.5871,-0.63708 2.7731,-3.03708 4.8578,-5.33334 2.0846,-2.29624 4.5348,-4.77583 5.4448,-5.51016 1.737,-1.40169 2.4809,-1.08003 22.7649,9.84315 4.1067,2.21148 12.0267,6.42585 17.6,9.36526 5.5734,2.93941 12.7599,6.79412 15.9701,8.56601 12.9894,7.16965 19.6363,10.36075 21.5809,10.36075 1.1263,0 19.4181,-12.40716 40.6484,-27.57146 21.2303,-15.1643 43.6406,-30.77974 49.8006,-34.70099 6.16,-3.92124 11.92,-7.58879 12.8,-8.15011 7.343,-4.68385 27.8686,-17.04411 28.3036,-17.04411 0.3018,0 3.5369,-1.85354 7.1892,-4.11897 9.5639,-5.93221 33.8514,-19.41943 61.0406,-33.89664 11.0267,-5.87132 35.1245,-17.87817 75.7333,-37.73453 12.9067,-6.31093 33.4391,-16.35945 45.6277,-22.33004 l 22.1611,-10.85564 -0.6358,-5.53209 c -0.3497,-3.04265 -1.2851,-10.332089 -2.0787,-16.198759 -0.7936,-5.86666 -1.9966,-14.98666 -2.6735,-20.26666 -0.6768,-5.28 -1.8854,-14.16 -2.6858,-19.73334 -3.1403,-21.86816 -3.5051,-20.70267 7.2209,-23.06916 11.6642,-2.57347 15.0145,-3.3258 23.1974,-5.20906 4.4,-1.01264 9.92,-2.21764 12.2667,-2.67776 2.3467,-0.46012 8.3467,-1.64075 13.3333,-2.62361 4.9867,-0.98287 12.4267,-2.20605 16.5334,-2.71819 21.6832,-2.7041203 38.8793,-4.4437903 52.2666,-5.2876703 8.2134,-0.51773 18.0534,-1.24241 21.8667,-1.6104 29.59,-2.85545 161.2131,-4.94665 174.9333,-2.77931 3.8133,0.60238 15.57326,1.62931 26.13336,2.28206 22.4849,1.38987 31.9939,2.32625 48,4.72669 6.4533,0.9678103 15.0933,2.1818403 19.2,2.6978303 4.1066,0.51599 12.0266,1.70965 17.6,2.65257 5.5733,0.94293 13.0133,2.111 16.5333,2.59571 10.5674,1.45516 25.2371,5.35373 31.2913,8.31583 13.1427,6.43026 16.5366,13.60297 19.3229,40.83781 3.7779,36.926759 10.3381,61.100069 16.9495,62.456779 9.7732,2.00548 17.0139,4.49033 30.0363,10.30775 3.2267,1.44142 8.4905,3.77908 11.6972,5.19478 6.511,2.87439 41.8384,20.6072 54.8841,27.5494 7.5134,3.99823 12.5795,6.77116 23.552,12.89129 1.76,0.98167 6.08,3.38167 9.6,5.33333 11.5728,6.41654 13.1499,7.3241 17.5093,10.07604 2.3733,1.49818 4.5698,2.72396 4.8812,2.72396 0.4873,0 15.079,8.72516 19.7429,11.80526 0.88,0.58117 2.44,1.33872 3.4666,1.68344 1.0267,0.34473 1.8667,1.0508 1.8667,1.56904 0,0.51824 0.4751,0.94226 1.0558,0.94226 0.5806,0 4.5406,2.26047 8.8,5.02325 4.2593,2.7628 9.3569,5.91199 11.328,6.99821 6.3796,3.51559 33.317,22.10963 50.2829,34.7086 9.0933,6.75278 18.2133,13.50655 20.2666,15.00836 4.3269,3.16463 4.7896,3.51571 9.0667,6.87915 1.76,1.38401 7.7434,5.7888 13.2962,9.78842 5.553,3.99962 11.0377,8.149 12.1881,9.22083 4.4901,4.18312 5.4779,3.89925 22.2678,-6.39908 3.9704,-2.43526 7.4556,-4.42774 7.745,-4.42774 0.2895,0 4.3557,-2.4 9.0362,-5.33333 4.6806,-2.93334 8.746,-5.33334 9.0343,-5.33334 0.4564,0 7.4371,-4.14754 13.9251,-8.27345 1.159,-0.73707 2.8075,-1.66685 3.6631,-2.06617 0.8557,-0.39932 4.9357,-2.81471 9.0667,-5.36752 l 7.5108,-4.64149 4.8,5.11045 c 2.64,2.81075 7.44,8.18839 10.6667,11.95031 3.2267,3.76193 6.3544,7.36067 6.9505,7.99721 5.0042,5.34363 28.6949,34.52936 37.5926,46.31204 0.7387,0.97824 4.8212,6.33862 9.0722,11.91196 4.2509,5.57333 8.4466,11.15968 9.3236,12.4141 0.8769,1.25443 6.9251,9.65443 13.4403,18.66666 22.8038,31.54348 49.5932,72.068 59.9498,90.68669 1.7435,3.13457 4.6592,8.33921 6.4792,11.56588 3.9726,7.04281 18.4511,36.79603 24.6555,50.66667 0.5249,1.17333 2.6602,5.86386 4.7453,10.42339 2.0851,4.55954 3.791,8.50642 3.791,8.77085 0,0.26442 1.2497,3.2539 2.7771,6.64326 1.5273,3.38938 3.1799,7.1225 3.6725,8.29583 0.4925,1.17333 2.1733,5.01333 3.7353,8.53333 1.5619,3.52 4.2437,10 5.9596,14.4 1.7159,4.4 3.5598,8.96 4.0976,10.13334 0.8238,1.79736 7.4332,18.90533 13.5989,35.2 0.8879,2.34666 2.0071,5.22666 2.4872,6.4 1.2748,3.11596 5.7629,17.13474 7.8544,24.53333 0.995,3.52 2.261,7.23348 2.8132,8.25219 3.609,6.65686 -0.9279,16.51943 -12.985,28.22858 -8.0176,7.78613 -10.6161,9.81382 -27.0641,21.11923 -6.8283,4.69333 -14.2255,9.79899 -16.4382,11.3459 l -4.0233,2.81257 -0.7085,67.58743 c -0.3896,37.17304 -0.9972,123.98744 -1.35,192.92074 l -0.6416,125.33336 19.0247,13.3333 c 19.5951,13.7332 37.7954,29.8628 41.5379,36.812 1.1022,2.0468 2.375,3.7214 2.8282,3.7214 1.1187,0 1.0525,11.0489 -0.074,12.32 -0.494,0.5573 -1.7514,4.3733 -2.7942,8.48 -2.4276,9.5588 -9.3023,30.4598 -13.3323,40.5333 -0.4693,1.1733 -1.5781,4.0533 -2.4638,6.4 -2.0079,5.3197 -7.0949,18.4794 -8.2468,21.3333 -7.8935,19.5582 -10.071,24.6952 -10.8293,25.5467 -0.4962,0.5573 -0.9022,1.6022 -0.9022,2.3221 0,0.7198 -1.6185,4.8238 -3.5966,9.12 -1.9782,4.2961 -4.6817,10.2112 -6.008,13.1446 -7.0642,15.6245 -9.1497,20.0652 -13.7755,29.3333 -4.4689,8.9537 -6.6596,13.0569 -13.9533,26.1333 -0.9816,1.76 -3.3743,6.0618 -5.3169,9.5594 -1.9427,3.4977 -5.1411,8.8746 -7.1076,11.9488 -1.9665,3.0741 -3.5755,5.8845 -3.5755,6.2451 0,0.3607 -1.2,2.229 -2.6666,4.1519 -1.4667,1.9229 -2.6667,3.8429 -2.6667,4.2667 0,0.4238 -1.2,2.3438 -2.6667,4.2666 -1.4666,1.9229 -2.6666,3.8856 -2.6666,4.3615 0,0.476 -1.1254,2.3506 -2.5007,4.166 -1.3755,1.8154 -2.6955,3.7807 -2.9334,4.3674 -0.9992,2.4638 -34.3737,51.9994 -38.1078,56.561 -0.4927,0.602 -1.8063,2.522 -2.9191,4.2667 -1.1127,1.7447 -2.3155,3.4123 -2.6728,3.7056 -0.3573,0.2933 -3.2259,4.1333 -6.3745,8.5333 -5.598,7.8226 -19.0714,25.6082 -20.2012,26.6667 -0.3132,0.2933 -2.5533,3.1733 -4.9781,6.4 -2.4249,3.2267 -5.3021,6.843 -6.3939,8.0362 -1.0919,1.1932 -4.1318,4.7932 -6.7553,8 -2.6236,3.2068 -6.7601,7.9905 -9.1926,10.6305 -2.4323,2.64 -6.0457,6.701 -8.0298,9.0245 -1.9841,2.3235 -6.0417,6.8835 -9.017,10.1333 -2.9753,3.2498 -7.299,7.9812 -9.6083,10.514 -4.7402,5.1988 -4.867,5.1917 -14.8489,-0.8276 -2.9333,-1.7688 -6.0533,-3.5532 -6.9333,-3.9653 -0.88,-0.4121 -4.097,-2.3385 -7.1488,-4.2807 -3.0517,-1.9423 -5.8171,-3.5316 -6.145,-3.5316 -0.3279,0 -4.4257,-2.4 -9.1062,-5.3333 -4.6805,-2.9333 -8.7784,-5.3333 -9.1062,-5.3333 -0.3279,0 -3.1115,-1.609 -6.1856,-3.5755 -5.5975,-3.5806 -15.7467,-9.3947 -21.228,-12.1605 -3.4479,-1.7399 -2.3392,-2.3335 -18.3272,9.8116 -6.9927,5.3117 -16.3527,12.3885 -20.8,15.7262 -4.4475,3.3377 -8.5663,6.4787 -9.153,6.98 -0.5867,0.5014 -3.9467,3.017 -7.4667,5.5903 -3.52,2.5733 -6.64,4.955 -6.9333,5.2927 -2.0185,2.3236 -38.8904,27.8018 -40.2347,27.8018 -0.3652,0 -1.4229,0.6868 -2.3504,1.5262 -0.9274,0.8394 -2.8853,2.1754 -4.3506,2.9689 -1.4654,0.7935 -6.1492,3.7066 -10.4085,6.4738 -4.2594,2.7671 -8.0114,5.0311 -8.3379,5.0311 -0.3264,0 -2.1669,1.2 -4.0897,2.6667 -1.9229,1.4667 -3.834,2.6667 -4.2468,2.6667 -0.4128,0 -3.2658,1.6089 -6.3399,3.5754 -5.1322,3.283 -10.1028,6.1387 -23.1082,13.2759 -2.64,1.4487 -5.28,2.9988 -5.8666,3.4445 -1.3924,1.0576 -7.5585,4.4889 -18.1334,10.0907 -4.6933,2.4863 -10.6933,5.7296 -13.3333,7.2076 -2.64,1.4779 -15.12,7.9514 -27.7333,14.3856 -24.5784,12.5377 -34.9726,18.0317 -45.7025,24.1564 -3.723,2.1251 -7.203,3.8639 -7.7334,3.8639 -0.5302,0 -0.9641,0.48 -0.9641,1.0666 0,0.5867 -0.4837,1.0667 -1.0747,1.0667 -1.0469,0 -26.6633,15.6629 -27.7253,16.9524 -0.2934,0.3562 -2.6934,2.3074 -5.3334,4.3362 -8.0954,6.2212 -7.7674,5.3889 -10.5269,26.7114 -0.6453,4.9867 -1.6886,11.7067 -2.3186,14.9333 -0.63,3.2267 -1.6521,8.5067 -2.2713,11.7334 -3.8456,20.037 -9.8086,30.1221 -20.8418,35.2495 -6.0956,2.8327 -8.6538,3.8531 -11.508,4.5897 -1.1734,0.3028 -4.7734,1.3216 -8,2.2639 -3.2267,0.9423 -8.0267,2.1387 -10.6667,2.6587 -2.64,0.52 -8.64,1.7153 -13.3333,2.6563 -13.4844,2.7037 -37.6357,6.2747 -53.8667,7.9646 -4.9867,0.5192 -10.7467,1.2305 -12.8,1.5806 -9.1475,1.5595 -43.98096,4.2717 -75.73336,5.8966 -13.2,0.6754 -26.0469,1.6883 -28.5486,2.2508 -5.5651,1.2511 -86.5493,1.3117 -88.7847,0.066 z m 126.9333,-209.1482 c 7.3333,-0.5272 18.3733,-1.2389 24.5333,-1.5817 15.93676,-0.8868 52.63516,-4.7456 66.13336,-6.9538 10.8181,-1.7698 25.0323,-4.4024 28.8,-5.3341 9.7533,-2.4117 17.7962,-4.6072 19.7333,-5.3865 1.1734,-0.4721 4.5334,-1.6081 7.4667,-2.5244 10.1569,-3.1729 22.4095,-7.2284 24.5333,-8.1202 1.1734,-0.4927 4.5334,-1.7039 7.4667,-2.6915 2.9333,-0.9877 6.2933,-2.1675 7.4667,-2.6219 9.2856,-3.5958 12.4357,-4.8825 17.3624,-7.0912 3.0961,-1.388 6.1026,-2.5236 6.6812,-2.5236 0.5786,0 1.8854,-0.424 2.9042,-0.9422 1.0187,-0.5183 3.0522,-1.4521 4.5188,-2.0751 14.1881,-6.0275 42.4908,-19.0073 47.4667,-21.7685 1.1733,-0.6511 6.4533,-3.4166 11.7333,-6.1454 8.492,-4.3889 14.2021,-7.4847 25.6,-13.8793 2.6952,-1.512 9.5817,-5.5145 17.4167,-10.1229 6.6348,-3.9024 12.6255,-7.7436 30.5833,-19.6103 11.1467,-7.3657 20.5067,-13.69 20.8,-14.054 0.2934,-0.3639 4.9591,-3.8508 10.3684,-7.7486 5.4091,-3.8979 10.6891,-7.7838 11.7333,-8.6353 1.044,-0.8516 7.1783,-5.7709 13.6317,-10.9318 6.4533,-5.1609 11.9733,-9.636 12.2666,-9.9446 0.2934,-0.3084 4.3734,-3.9138 9.0667,-8.0117 22.1934,-19.378 54.105,-51.2875 70.4015,-70.397 3.5022,-4.1067 6.6337,-7.7067 6.9589,-8 2.3003,-2.0746 23.8267,-29.9078 32.6732,-42.2458 13.9728,-19.4874 21.5727,-31.4588 35.4794,-55.8875 5.4711,-9.6106 33.1537,-66.104 33.1537,-67.6586 0,-0.265 1.92,-4.6187 4.2666,-9.6748 2.3467,-5.0561 4.2667,-9.6511 4.2667,-10.211 0,-0.5598 0.4637,-1.8514 1.0304,-2.8701 0.8673,-1.559 4.9857,-12.1253 13.6106,-34.9189 0.8879,-2.3466 1.9969,-5.2266 2.4643,-6.4 0.4675,-1.1733 1.0923,-3.0933 1.3885,-4.2666 0.2961,-1.1734 1.4996,-4.7734 2.6745,-8 2.5243,-6.9328 10.0113,-30.8948 12.4981,-40 4.0512,-14.8329 4.9558,-18.3506 5.7605,-22.4 0.4664,-2.3467 1.6743,-7.6267 2.6843,-11.7334 1.0099,-4.1066 2.2369,-9.8666 2.7265,-12.8 0.4897,-2.9333 1.6389,-9.6533 2.5539,-14.9333 7.2246,-41.689 10.3024,-99.36266 8.2263,-154.15026 -2.145,-56.6098 -6.5751,-91.69021 -17.3743,-137.58307 -1.7077,-7.25745 -7.1438,-25.72732 -11.1447,-37.86667 -3.6185,-10.97873 -13.632,-37.19203 -15.3764,-40.25219 -0.5807,-1.01871 -1.0558,-2.32559 -1.0558,-2.90418 0,-0.57858 -1.2643,-3.8251 -2.8096,-7.21447 -1.5454,-3.38937 -3.7054,-8.20249 -4.8,-10.69583 -14.2542,-32.46597 -36.4425,-76.60978 -50.1798,-99.83256 -3.4159,-5.77458 -6.2106,-10.71099 -6.2106,-10.96979 0,-1.15067 -29.3897,-47.09883 -35.8521,-56.05159 -17.3079,-23.97773 -35.0927,-44.26677 -63.8837,-72.87939 -19.5239,-19.40289 -24.8466,-24.408 -35.7309,-33.59882 -3.8133,-3.22002 -7.1733,-6.14189 -7.4667,-6.49307 -0.2933,-0.35117 -5.8133,-4.83231 -12.2666,-9.95808 -6.4534,-5.12576 -12.6613,-10.07195 -13.7952,-10.99151 -5.0975,-4.1334 -39.2136,-28.16832 -45.9382,-32.36357 -4.1066,-2.56201 -7.6266,-5.03398 -7.8221,-5.49324 -0.1957,-0.45928 -0.8703,-0.83504 -1.4994,-0.83504 -0.6291,0 -2.7171,-1.2 -4.64,-2.66667 -1.9228,-1.46667 -3.7912,-2.66667 -4.1518,-2.66667 -0.3607,0 -3.171,-1.60897 -6.2452,-3.57548 -3.0742,-1.96653 -8.4511,-5.16493 -11.9488,-7.10758 -3.4976,-1.94264 -8.0393,-4.48802 -10.0927,-5.65638 -13.6555,-7.77011 -38.515,-20.17471 -55.4666,-27.67712 -2.0534,-0.90876 -7.4884,-3.3768 -12.0779,-5.48454 -4.5895,-2.10773 -8.796,-3.83223 -9.3478,-3.83223 -0.5518,0 -1.8367,-0.45675 -2.8555,-1.015 -3.5205,-1.92923 -21.3275,-8.75871 -34.9188,-13.39238 -2.9334,-1.00005 -6.2934,-2.20675 -7.4667,-2.68155 -1.1733,-0.47479 -4.7733,-1.6896 -8,-2.69956 -3.2267,-1.00996 -6.8267,-2.18349 -8,-2.60782 -1.1733,-0.42433 -5.0133,-1.61542 -8.5333,-2.64687 -3.52,-1.03144 -7.6,-2.24944 -9.0667,-2.70663 -2.8226,-0.87992 -12.9518,-3.69228 -19.2,-5.33092 -9.9555,-2.6109 -36.7903,-8.61645 -46.9333,-10.50356 -3.2267,-0.60032 -8.5067,-1.59554 -11.7334,-2.2116 -8.2994,-1.58459 -19.473,-3.26043 -28.79996,-4.31948 -4.4,-0.49961 -12.08,-1.39323 -17.0667,-1.98582 -32.1995,-3.82649 -70.6907,-5.06485 -106.6666,-3.43174 -29.3323,1.33153 -65.22,4.71809 -85.3333,8.05254 -5.5734,0.92396 -13.0134,2.13362 -16.5334,2.68813 -7.442,1.17236 -15.2921,2.71409 -21.3333,4.18982 -2.3467,0.57323 -7.6267,1.81632 -11.7333,2.76241 -4.1067,0.9461 -8.9067,2.1305 -10.6667,2.63202 -13.328,3.79782 -43.6981,13.47059 -49.612,15.80122 -1.4601,0.57539 -6.0147,2.34398 -10.1213,3.9302 -11.3828,4.39664 -13.449,5.25012 -24.5334,10.13405 -5.3564,2.36011 -10.9631,4.78539 -14.9333,6.45972 -25.6223,10.80543 -93.403,44.71532 -107.9488,54.00555 -3.0518,1.94916 -5.8311,3.54394 -6.1763,3.54394 -1.0387,0 -29.2023,18.01135 -37.2816,23.84257 -9.9203,7.15988 -39.7424,31.30647 -44.3266,35.89076 -0.2934,0.29333 -6.0259,5.57333 -12.739,11.73333 -26.4787,24.29704 -52.5825,51.48025 -74.2625,77.33334 -3.4438,4.10666 -6.5591,7.70666 -6.923,8 -0.3639,0.29333 -2.2998,2.73593 -4.3019,5.42801 -2.0022,2.69206 -9.206,12.29206 -16.0085,21.33333 -6.8025,9.04126 -13.2714,17.87866 -14.3754,19.63866 -1.1039,1.76 -2.2696,3.44 -2.5905,3.73333 -1.4676,1.34179 -22.3992,33.73708 -22.3992,34.66667 0,0.27055 -1.6081,3.02122 -3.5735,6.11262 -1.9653,3.09139 -5.1638,8.50071 -7.1075,12.02071 -1.9438,3.52 -4.4923,8.08 -5.6633,10.13333 -3.3216,5.82414 -18.0321,35.10734 -20.9058,41.61579 -1.4208,3.21798 -4.1207,9.21088 -5.9996,13.31755 -1.8789,4.10666 -4.9579,11.30666 -6.8422,16 -1.8842,4.69333 -3.8259,9.49333 -4.3148,10.66666 -0.4889,1.17334 -2.1633,5.73334 -3.7207,10.13334 -1.5575,4.4 -3.4867,9.68 -4.2871,11.73333 -0.8005,2.05333 -2.037,5.65333 -2.7478,8 -0.7109,2.34667 -2.4201,7.39685 -3.7984,11.22262 -1.3783,3.82579 -2.506,7.39741 -2.506,7.93696 0,0.53956 -1.1643,4.84938 -2.5874,9.57738 -5.2885,17.57094 -11.0796,40.82268 -13.3982,53.79513 -0.4851,2.71401 -1.6771,9.01458 -2.6488,14.00124 -1.7853,9.16128 -2.4497,13.41063 -5.4205,34.66671 -7.6323,54.6104 -7.6308,128.4301 0,187.19996 3.7154,28.5994 6.0181,42.4379 10.7384,64.5333 1.0027,4.6934 2.1918,10.4534 2.6426,12.8 0.9933,5.1719 8.206,33.0731 9.5131,36.8 0.5143,1.4667 2.002,6.2667 3.3059,10.6667 3.1593,10.6614 8.3467,26.6805 9.4988,29.3333 0.5096,1.1734 1.7346,4.5334 2.7222,7.4667 0.9876,2.9333 2.1925,6.2933 2.6775,7.4667 0.4851,1.1733 2.9016,7.1733 5.3701,13.3333 9.0399,22.5586 22.5627,51.3093 32.2045,68.47 5.6896,10.1263 7.5119,13.3849 11.3459,20.2884 10.8726,19.5772 38.3061,59.6656 54.9093,80.2385 5.1536,6.3858 25.5954,30.9302 26.2659,31.5375 0.3246,0.2939 3.4386,3.6539 6.9201,7.4667 21.9007,23.9844 55.0304,55.9732 76.87,74.2226 4.1067,3.4316 7.7067,6.5076 8,6.8356 0.2933,0.3281 4.3733,3.6197 9.0667,7.3149 4.6933,3.6951 9.2661,7.3061 10.1617,8.0243 0.8957,0.7183 4.4863,3.4425 7.9791,6.0538 3.4929,2.6112 7.0801,5.3315 7.9716,6.0451 3.41,2.7295 35.215,24.7468 38.1879,26.4359 1.0325,0.5867 3.3814,2.1467 5.2198,3.4667 1.8384,1.32 3.6605,2.4 4.049,2.4 0.3886,0 2.2798,1.2 4.2027,2.6667 1.9229,1.4666 3.8024,2.6666 4.1767,2.6666 0.3743,0 3.929,1.992 7.8994,4.4267 9.0376,5.5421 12.4272,7.4681 23.7521,13.4962 16.8831,8.9867 49.1792,24.7438 50.7154,24.7438 0.2344,0 3.1994,1.2497 6.5887,2.7771 3.3894,1.5273 7.1225,3.1615 8.2959,3.6313 1.1733,0.4699 6.9333,2.8211 12.8,5.2251 5.8666,2.4039 11.4266,4.3698 12.3555,4.3686 0.9289,0 1.9834,0.2924 2.3434,0.6524 1.5218,1.5218 28.1811,10.327 49.3011,16.2834 1.76,0.4964 5.84,1.6593 9.0666,2.5841 7.9972,2.2924 12.5186,3.4348 25.6,6.4686 22.8243,5.2932 31.8127,6.461 78.4,10.1861 14.8945,1.191 117.6826,1.2823 133.8667,0.1189 z m -75.2,-42.2206 c -2.3467,-0.2162 -11.7067,-0.9124 -20.8,-1.547 -18.2486,-1.2736 -27.3023,-2.3578 -46.4,-5.5561 -7.04,-1.1789 -15.2985,-2.5256 -18.3522,-2.9926 -3.0537,-0.4669 -7.1337,-1.3182 -9.0667,-1.8916 -1.9329,-0.5735 -6.3944,-1.6324 -9.9144,-2.3533 -3.52,-0.7207 -8.56,-1.917 -11.2,-2.6582 -2.64,-0.7413 -6.72,-1.8739 -9.0667,-2.5169 -14.2366,-3.9011 -17.2803,-4.7731 -19.2,-5.5003 -1.1733,-0.4445 -6.2133,-2.0979 -11.2,-3.6743 -4.9866,-1.5763 -10.5792,-3.5528 -12.4279,-4.3921 -1.8486,-0.8392 -3.8951,-1.5259 -4.5478,-1.5259 -0.6526,0 -2.02,-0.4397 -3.0388,-0.977 -1.0187,-0.5374 -3.7721,-1.7638 -6.1188,-2.7254 -6.7591,-2.7697 -14.6295,-6.9681 -18.4611,-9.848 -2.6965,-2.0266 -3.4506,-3.318 -3.2,-5.4802 0.3899,-3.3657 5.7812,-6.4258 11.5278,-6.5433 4.5604,-0.093 28.5004,-6.5006 35.7333,-9.5636 1.1733,-0.497 4.5333,-1.7116 7.4667,-2.6992 2.9333,-0.9877 6.2933,-2.1809 7.4666,-2.6519 1.1734,-0.4708 4.2934,-1.6987 6.9334,-2.7286 2.64,-1.0299 6.3125,-2.5274 8.1612,-3.3277 1.8486,-0.8003 3.6538,-1.4551 4.0116,-1.4551 0.3577,0 2.6852,-0.9082 5.1721,-2.0182 24.1189,-10.7646 53.6728,-21.1157 74.3884,-26.054 23.9773,-5.716 34.5482,-7.1063 59.7333,-7.8563 23.4196,-0.6973 42.7642,1.4244 66.6667,7.3121 4.6933,1.1561 10.2133,2.484 12.2666,2.9508 3.9949,0.9082 24.02946,7.5279 29.33336,9.6921 1.76,0.7182 4.4,1.7766 5.8667,2.3519 3.7111,1.4559 8.0378,3.3228 15.2291,6.5712 3.3894,1.531 6.5396,2.7837 7.0004,2.7837 0.4608,0 3.3254,1.2 6.3656,2.6667 3.0403,1.4666 5.92,2.6666 6.3993,2.6666 0.4794,0 2.8434,0.9527 5.2534,2.117 2.41,1.1645 6.7001,2.8738 9.5336,3.7984 2.8336,0.9248 8.0319,2.8072 11.5519,4.1831 16.3775,6.4016 35.0048,11.2049 43.5197,11.2223 6.5613,0.014 12.4803,2.27 12.4803,4.7582 0,1.7664 -5.0869,8.0544 -6.516,8.0544 -0.5462,0 -2.7835,1.1013 -4.9719,2.4474 -2.1882,1.3462 -7.3388,3.7929 -11.4454,5.4372 -4.1067,1.6442 -8.4267,3.3885 -9.6,3.8762 -3.144,1.3068 -15.2104,5.3001 -21.3334,7.0602 -2.9333,0.8432 -6.7733,1.9523 -8.5333,2.4647 -15.8437,4.6128 -40.8652,10.8393 -57.6,14.3335 -35.96786,7.5099 -67.85476,11.1269 -103.99996,11.7968 -11.44,0.2119 -22.72,0.2085 -25.0667,-0.011 z m -249.0666,-155.3153 c -7.833,-1.2818 -15.5972,-3.0073 -20.8,-4.6224 -2.3467,-0.7284 -7.1467,-2.1847 -10.6667,-3.2361 -3.52,-1.0513 -7.12,-2.2725 -8,-2.7138 -0.88,-0.4413 -12.4,-5.197 -25.6,-10.5683 -13.2,-5.3713 -24.96,-10.1569 -26.1333,-10.6347 -15.5021,-6.312 -40.4054,-15.1731 -55.4667,-19.7363 -5.28,-1.5997 -10.4335,-3.345 -11.4522,-3.8783 -1.0187,-0.5334 -2.3405,-0.9698 -2.9374,-0.9698 -1.351,0 -18.7897,-8.4294 -26.6771,-12.8949 -13.2837,-7.5209 -27.5312,-20.1524 -38.9756,-34.5547 -2.3234,-2.9239 -5.6644,-6.9302 -7.4244,-8.9027 -4.8491,-5.4347 -26.8663,-36.4706 -35.6308,-50.2259 -9.0386,-14.1856 -18.1042,-31.5753 -19.3573,-37.1313 -1.2651,-5.6095 0.108,-7.2624 7.2091,-8.6779 22.4216,-4.4693 94.0055,-4.4935 120.8457,-0.041 19.9655,3.3123 41.3457,10.003 61.8667,19.3607 7.3555,3.3542 11.8965,5.3654 18.6666,8.2674 2.931,1.2564 6.8901,2.9704 8.7979,3.8089 5.7206,2.5141 10.1899,4.3286 14.1355,5.7387 2.0533,0.7339 4.6933,1.7263 5.8666,2.2055 3.049,1.2449 9.0697,3.2505 12.8,4.2639 1.76,0.4781 6.56,1.801 10.6667,2.9398 11.1149,3.0823 17.8355,4.3704 31.9557,6.1249 26.4463,3.2861 47.6776,0.9978 84.311,-9.0869 9.6006,-2.643 30.8431,-10.3464 37.8021,-13.7086 2.6025,-1.2574 5.1086,-2.2862 5.569,-2.2862 0.4605,0 3.3703,-1.1462 6.4664,-2.5472 3.096,-1.4009 8.9891,-3.8488 13.0958,-5.4398 4.1067,-1.5909 8.3001,-3.3247 9.3188,-3.8528 1.0188,-0.5281 2.3862,-0.9602 3.0388,-0.9602 0.6527,0 2.6992,-0.6535 4.5478,-1.4523 6.7858,-2.9319 34.1261,-10.659 44.4279,-12.5566 23.1828,-4.2702 33.2799,-5.1814 57.4679,-5.1862 28.0439,-0.011 41.4779,1.5579 65.7321,7.6497 4.6933,1.1789 10.2133,2.5277 12.2667,2.9974 7.4418,1.7024 29.25076,9.3884 38.16246,13.4495 3.096,1.4108 5.8858,2.5652 6.1994,2.5652 0.3136,0 3.3005,1.2469 6.6375,2.771 16.683,7.6195 36.6026,15.2184 48.7339,18.5913 1.76,0.4893 5.84,1.6617 9.0667,2.6051 7.4107,2.1671 12.9819,3.2299 30.9026,5.8954 28.7315,4.2734 51.3319,2.1633 91.2307,-8.5175 8.6429,-2.3137 45.3852,-16.5835 62.1625,-24.1424 3.0961,-1.3949 6.2561,-2.5363 7.0223,-2.5363 0.7662,0 1.683,-0.2899 2.0374,-0.6443 0.6671,-0.6671 22.3319,-8.4447 27.9778,-10.044 19.6271,-5.5595 37.4975,-9.3563 55.4667,-11.7844 12.1424,-1.6407 46.2859,-1.6179 55.7478,0.037 9.3096,1.6286 22.1836,4.1644 26.9189,5.3022 2.0533,0.4935 7.7086,1.7643 12.5673,2.8241 5.7326,1.2505 8.6653,2.3664 8.3536,3.1786 -0.6571,1.7126 -55.2718,77.986 -62.9617,87.9307 -20.6859,26.7513 -36.8122,42.1462 -51.4957,49.1602 -4.805,2.2951 -9.6967,4.1731 -10.8704,4.1731 -1.1736,0 -2.4306,0.48 -2.7931,1.0667 -0.3626,0.5866 -1.5746,1.0666 -2.6935,1.0666 -1.1188,0 -3.8504,0.7866 -6.0704,1.7479 -2.2198,0.9612 -4.9961,2.1039 -6.1695,2.5389 -6.0555,2.2457 -19.0516,7.2235 -27.7333,10.6226 -1.1733,0.4594 -4.2933,1.6701 -6.9333,2.6906 -8.0995,3.1308 -8.9295,3.4592 -13.3334,5.2763 -2.3466,0.9682 -5.1001,2.2172 -6.1188,2.7753 -1.0188,0.5583 -2.3256,1.0151 -2.9042,1.0151 -0.5786,0 -3.5851,1.1462 -6.6812,2.5472 -3.096,1.4009 -8.9891,3.8647 -13.0958,5.475 -4.1066,1.6103 -8.9066,3.5121 -10.6666,4.2261 -1.76,0.7141 -4.88,1.8988 -6.9334,2.6326 -2.0533,0.7339 -4.6933,1.7252 -5.8666,2.2028 -1.1734,0.4777 -4.5334,1.632 -7.4667,2.5651 -2.9333,0.9332 -8.3959,2.6801 -12.1392,3.8822 -6.7469,2.1665 -9.6976,2.8834 -24.1275,5.8616 -13.6027,2.8077 -29.4137,3.9319 -45.8666,3.2611 -14.4264,-0.5879 -20.23,-1.4485 -40,-5.9312 -5.0927,-1.1547 -18.2451,-5.352 -20.5188,-6.5481 -1.0188,-0.5359 -2.3863,-0.9744 -3.0389,-0.9744 -0.6526,0 -2.6991,-0.6592 -4.5478,-1.465 -1.8487,-0.8057 -7.2012,-3.0202 -11.8945,-4.921 -8.812,-3.569 -14.2814,-5.9286 -23.4667,-10.1241 -18.471,-8.4368 -37.92296,-16.1809 -46.93336,-18.6847 -1.76,-0.4892 -5.84,-1.675 -9.0666,-2.6353 -11.4785,-3.4162 -28.1442,-6.998 -42.4716,-9.1281 -11.0201,-1.6383 -52.509,-1.6219 -62.0311,0.024 -10.7398,1.8571 -23.6339,4.3322 -27.764,5.3293 -8.7006,2.1008 -17.7477,4.5669 -19.7333,5.3792 -1.1734,0.48 -4.7734,1.6613 -8,2.6251 -3.2267,0.9637 -6.8267,2.1406 -8,2.6151 -1.1733,0.4746 -4.2933,1.6895 -6.9333,2.7 -2.64,1.0104 -5.6335,2.2679 -6.6522,2.7944 -1.0188,0.5264 -2.3256,0.9571 -2.9042,0.9571 -0.5786,0 -3.5851,1.145 -6.6812,2.5445 -13.3375,6.0286 -16.8856,7.5525 -28.0139,12.0324 -6.4617,2.6012 -12.7085,5.1471 -13.8819,5.6575 -6.3691,2.7704 -22.4612,8.1126 -38.4,12.748 -4.2658,1.2406 -17.5184,3.9397 -26.2563,5.3475 -8.3139,1.3394 -38.3994,1.2729 -46.8103,-0.1035 z m 1.0666,-250.0538 c -11.82,-1.0148 -31.4288,-6.1411 -46.4,-12.1304 -1.1733,-0.4694 -4.2933,-1.6967 -6.9333,-2.7272 -2.64,-1.0306 -6.8999,-2.7986 -9.4664,-3.929 -2.5666,-1.1305 -7.1266,-3.0206 -10.1334,-4.2005 -3.0068,-1.1798 -10.5069,-4.5625 -16.6669,-7.5171 -32.4166,-15.5485 -32.5936,-15.6256 -45.8666,-19.996 -27.7858,-9.1493 -51.2963,-12.8864 -81.0667,-12.8864 -27.8852,0 -46.1362,2.6649 -76.8,11.214 -2.64,0.736 -6.96,1.9335 -9.6,2.6608 -2.64,0.7274 -6.96,1.9531 -9.6,2.7239 -2.64,0.7707 -6.96,1.9707 -9.6,2.6667 -2.64,0.696 -6.9255,1.9292 -9.5234,2.7404 -7.9378,2.4786 -10.3819,2.0115 -13.211,-2.5251 -3.2545,-5.2188 -18.8656,-37.5775 -18.8656,-39.1047 0,-0.3138 -1.147,-3.1034 -2.5489,-6.1995 -2.8289,-6.2473 -10.3558,-24.8927 -12.3916,-30.6958 -0.7203,-2.0533 -1.9734,-5.2459 -2.7846,-7.0945 -0.8112,-1.8488 -1.4749,-3.8953 -1.4749,-4.5478 0,-0.6526 -0.422,-2.0201 -0.9379,-3.0389 -2.4019,-4.7435 -4.4055,-13.0394 -4.4007,-18.2209 0.01,-6.8125 1.7197,-9.9881 8.221,-15.2365 6.2612,-5.0547 53.4402,-28.6614 57.2809,-28.6614 0.7413,0 1.6768,-0.329 2.0788,-0.731 1.5064,-1.5064 19.2858,-7.4599 28.4246,-9.51806 19.8461,-4.4696 29.3756,-5.1672 70.9333,-5.1927 46.1149,-0.028 58.0292,0.9557 80,6.60756 6.5023,1.6728 20.6498,6.1495 24.5333,7.7633 1.1734,0.4876 5.9734,2.4302 10.6667,4.3169 4.6933,1.8867 11.6533,4.8601 15.4667,6.6076 3.8133,1.7475 9.1534,4.0547 11.8669,5.1271 2.7134,1.0725 7.0334,2.8826 9.6,4.0225 26.8643,11.9319 52.5525,19.1385 77.1881,21.6546 22.4707,2.2949 52.2,-0.6003 73.0783,-7.1168 11.5211,-3.596 22.0276,-7.0374 24,-7.8612 1.1733,-0.4901 4.2933,-1.7329 6.9333,-2.7618 2.64,-1.0289 7.3331,-3.0064 10.4292,-4.3944 3.096,-1.388 5.8857,-2.5236 6.1994,-2.5236 0.3136,0 3.0605,-1.1344 6.1041,-2.5208 14.2468,-6.4896 19.8749,-8.9261 27.4007,-11.862 2.64,-1.0299 5.76,-2.2786 6.9333,-2.7747 5.9271,-2.5066 23.3182,-7.7342 32,-9.61886 30.5039,-6.6223 102.5617,-6.6493 136,-0.051 7.5529,1.49036 15.2968,3.52636 17.3188,4.55326 1.0187,0.5174 2.5625,0.9407 3.4305,0.9407 0.8681,0 3.1546,0.6796 5.0812,1.5102 1.92646,0.8306 8.54276,3.532 14.70276,6.0032 6.16,2.4712 14.08,5.808 17.6,7.4152 3.52,1.6072 8.8,4.0026 11.7334,5.323 2.9333,1.3205 7.2235,3.3041 9.5337,4.408 2.3102,1.1039 4.577,2.007 5.0375,2.007 0.4604,0 3.3703,1.1531 6.4663,2.5624 3.096,1.4093 6.5891,2.8175 7.7625,3.1293 1.1733,0.3118 4.2933,1.3777 6.9333,2.3685 2.64,0.9909 6.24,2.203 8,2.6937 1.76,0.4906 5.84,1.6431 9.0667,2.5611 32.2982,9.1885 69.2925,9.313 101.8666,0.3429 4.1067,-1.1309 9.1467,-2.4501 11.2,-2.9316 4.652,-1.0908 15.3533,-4.7532 26.6667,-9.1263 10.6288,-4.1084 12.8794,-5.0487 22.6958,-9.483 3.3894,-1.531 6.5396,-2.7836 7.0004,-2.7836 0.4608,0 3.3254,-1.2 6.3656,-2.6667 3.0403,-1.4667 6.0166,-2.6667 6.6142,-2.6667 0.5974,0 1.9197,-0.4307 2.9385,-0.9571 1.0187,-0.5265 4.0122,-1.7839 6.6522,-2.7944 2.64,-1.0105 5.76,-2.209 6.9333,-2.6633 3.4289,-1.3279 11.3483,-3.8688 16.5333,-5.3048 2.64,-0.7311 6.24,-1.7916 8,-2.3566 5.8828,-1.88836 22.6607,-4.35556 42.6667,-6.27386 17.023,-1.6324 67.7299,-0.6599 82.1333,1.5752 5.8667,0.9104 13.3067,2.3753 16.5334,3.2553 3.2266,0.87996 7.0666,1.89196 8.5333,2.24886 1.4667,0.3568 3.6267,1.0319 4.8,1.5002 1.1733,0.4683 5.7333,2.189 10.1333,3.8238 11.684,4.3412 15.8054,6.2539 67.5221,31.3366 8.6837,4.2116 16.0208,8.2622 16.3044,9.0014 0.4639,1.2089 -8.5848,24.4299 -15.1343,38.8379 -1.4074,3.0961 -2.5588,6.1026 -2.5588,6.6811 0,0.5786 -0.4397,1.8855 -0.977,2.9042 -0.5374,1.0187 -1.7698,3.7722 -2.7389,6.1189 -7.1526,17.322 -18.4423,41.5643 -23.8439,51.2 -4.3693,7.7941 -7.6026,8.657 -24.1736,6.4514 -7.04,-0.937 -14.48,-2.1351 -16.5333,-2.6624 -29.7045,-7.6285 -45.0177,-10.4568 -67.6353,-12.4921 -17.6045,-1.5841 -20.6146,-1.5827 -38.4,0.018 -19.157,1.7244 -28.17,2.9395 -36.3647,4.9025 -2.3467,0.562 -7.6267,1.796 -11.7333,2.7422 -8.5862,1.978 -9.4606,2.2382 -26.6667,7.937 -16.7361,5.5431 -20.6079,6.9553 -21.4912,7.8386 -0.402,0.4021 -1.3426,0.731 -2.0901,0.731 -0.7474,0 -5.4959,1.92 -10.552,4.2667 -5.0561,2.3467 -9.4343,4.2667 -9.7292,4.2667 -0.2949,0 -3.2666,1.246 -6.6035,2.7691 -3.3371,1.5231 -8.6004,3.9231 -11.6964,5.3334 -3.0961,1.4102 -6.2561,2.5641 -7.0223,2.5641 -0.7662,0 -1.7221,0.329 -2.1241,0.731 -0.8145,0.8146 -4.4261,2.1604 -17.7579,6.6176 -24.6962,8.2565 -39.324,10.7848 -62.4,10.7848 -21.6697,0 -37.0878,-2.4135 -59.7333,-9.3504 -6.0856,-1.8643 -19.2228,-6.3858 -22.4,-7.7096 -1.1733,-0.489 -5.9733,-2.4306 -10.6667,-4.3149 -4.6933,-1.8842 -12.0483,-5.0457 -16.3445,-7.0256 -4.2962,-1.9797 -8.0057,-3.5995 -8.2433,-3.5995 -0.2376,0 -3.9226,-1.618 -8.1888,-3.5956 -6.4112,-2.9717 -24.5382,-10.2954 -33.35666,-13.4767 -21.7513,-7.8469 -49.2897,-11.6794 -84.2667,-11.7273 -24.8991,-0.034 -57.5546,2.9088 -70.9333,6.3924 -8.2508,2.1485 -16.6495,4.5312 -18.6667,5.2959 -17.1385,6.4964 -26.5445,10.2227 -30.9333,12.2547 -6.3374,2.9342 -14.5617,6.5904 -19.7333,8.7726 -4.9553,2.091 -8.8736,3.8143 -16.2959,7.1669 -3.3893,1.531 -6.6359,2.7837 -7.2144,2.7837 -0.5786,0 -1.8855,0.4691 -2.9042,1.0424 -5.5167,3.1047 -37.1439,12.0136 -56.5997,15.9433 -5.9222,1.1962 -38.7812,2.3029 -47.1192,1.5869 z m 21.8667,-249.03576 c -16.6269,-0.9663 -35.199,-3.9444 -46.9333,-7.5261 -19.426,-5.9294 -28.732,-9.4735 -50.1334,-19.093 -11.2672,-5.0645 -32.8192,-12.2923 -42.1333,-14.1301 -1.4667,-0.2894 -7.2267,-1.5005 -12.8,-2.6913 -50.6868,-10.8298 -113.8961,-10.0361 -159.4667,2.0023 -8.382,2.2143 -22.4547,6.5882 -25.6021,7.9574 -1.7611,0.7662 -5.6002,2.4209 -8.5312,3.6773 -2.931,1.2564 -7.0101,3.0193 -9.0646,3.9176 -2.0545,0.8983 -4.6954,2.0511 -5.8687,2.5618 -26.6825,11.613 -56.9614,18.0069 -61.8975,13.0707 -2.4693,-2.4692 -1.4297,-8.1601 5.8121,-31.8167 5.3353,-17.4288 10.2764,-33.2247 12.1768,-38.9279 l 2.3086,-6.9278 5.3333,-1.2364 c 2.9333,-0.6801 8.0052,-1.2826 11.2708,-1.3389 3.2655,-0.056 8.5455,-0.5645 11.7333,-1.1293 3.1877,-0.5649 11.0759,-1.5573 17.5292,-2.2055 25.1412,-2.5251 30.3277,-3.085 43.7334,-4.7217 7.6266,-0.9312 18.4266,-2.1464 24,-2.7005 5.5733,-0.5541 16.6133,-1.7845 24.5333,-2.734 7.92,-0.9496 18.48,-2.1389 23.4667,-2.643 4.9866,-0.504 15.3066,-1.6738 22.9333,-2.5994 7.6267,-0.9256 17.7067,-2.1228 22.4,-2.6604 4.6933,-0.5375 15.0133,-1.7612 22.9333,-2.7192 7.92,-0.9579 18.24,-2.1587 22.9334,-2.6684 17.959,-1.9502 45.1785,-6.4432 63.0404,-10.4059 6.3213,-1.4023 13.952,-5.3452 16.4221,-8.4854 1.3237,-1.68291 2.1375,-4.32977 2.1375,-6.95288 0,-6.10942 5.1047,-26.12398 9.5925,-37.61013 0.4584,-1.17333 3.351,-8.61333 6.428,-16.53333 5.9332,-15.27185 7.7819,-19.52464 16.2289,-37.33333 7.4671,-15.74251 11.6775,-24.14849 15.78,-31.50431 1.9517,-3.4993 4.8208,-8.76236 6.376,-11.69569 1.5551,-2.93334 5.1006,-9.17334 7.8789,-13.86667 2.7784,-4.69333 5.6197,-9.49333 6.3142,-10.66667 0.6945,-1.17333 2.344,-3.66131 3.6654,-5.52883 1.3215,-1.86752 2.4027,-3.86752 2.4027,-4.44444 0,-0.57692 0.36,-1.20895 0.8,-1.40451 0.44,-0.19555 2.8823,-3.39206 5.4273,-7.10336 17.9137,-26.12272 50.5126,-59.2549 82.8394,-84.19452 6.9867,-5.3901 23.4285,-15.9254 36.0258,-23.08398 2.8009,-1.59163 4.8125,-3.34683 4.4704,-3.90045 -0.3846,-0.62223 -51.1106,-1.00657 -132.8484,-1.00657 h -132.2262 l 0.2892,-21.06667 0.2892,-21.06667 161.6,-0.26158 c 88.88,-0.14387 162.1656,-0.26387 162.8568,-0.26666 0.6913,-0.003 1.7532,-2.52509 2.3599,-5.60509 1.5227,-7.73056 4.4209,-35.3771 4.389,-41.86667 -0.014,-2.93333 0.4502,-9.89333 1.0325,-15.46666 1.0864,-10.39835 3.742,-45.32577 4.9276,-64.81186 0.4481,-7.36409 1.126,-11.20307 2.0719,-11.73334 0.7732,-0.43347 6.841,-0.45538 13.4841,-0.0486 6.643,0.40671 23.3582,1.29199 37.1448,1.96729 13.7867,0.67529 31.0667,1.54253 38.4,1.92719 l 13.3334,0.69939 1.8144,16 c 0.9979,8.8 2.3171,21.52 2.9316,28.26667 3.1607,34.70121 4.4703,48.24151 5.4163,56 0.5722,4.69333 1.0398,10.79372 1.039,13.55642 -7e-4,2.76271 0.537,8.64271 1.195,13.06667 l 1.1963,8.04357 h 153.91646 c 84.654,0 154.6757,0.29135 155.6037,0.64746 1.4583,0.55959 1.6872,3.4545 1.6872,21.33333 V 522.6667 H 1168 c -76.3965,0 -126.9334,0.39005 -126.9334,0.97967 0,1.08302 3.2321,3.13887 14.4,9.15953 4.1067,2.21392 12.9346,7.67829 19.6175,12.14305 6.6829,4.46477 13.8829,9.273 16,10.68498 3.1802,2.12099 18.5224,14.23931 20.3825,16.09944 0.2934,0.29333 4.1334,3.71068 8.5334,7.59412 9.8734,8.71423 24.1987,23.39038 33.193,34.00588 3.728,4.4 7.0423,8.24 7.3651,8.53333 3.362,3.05588 21.6543,30.1715 27.7035,41.06667 1.9545,3.52 4.5112,8.08 5.6817,10.13333 3.0605,5.36873 14.9515,29.27377 18.3053,36.8 1.5686,3.52 3.9561,8.8 5.3056,11.73333 8.7744,19.07252 18.5602,45.34969 22.2452,59.73334 0.9018,3.52 2.1559,8.37569 2.7868,10.79042 0.631,2.41473 1.1471,6.52049 1.1471,9.1239 0,5.69965 4.1327,14.54729 9.1285,19.54315 4.9389,4.9389 14.3462,7.4684 45.8048,12.3164 11.0561,1.7039 28.4832,4.2154 36.8,5.3035 4.4,0.5757 13.04,1.7862 19.2,2.6899 6.16,0.9038 15.52,2.071 20.8,2.5937 5.28,0.5227 15.84,1.7265 23.4667,2.6751 17.5865,2.1874 39.4626,4.6525 70.9333,7.9932 4.9867,0.5294 16.2667,1.7549 25.0667,2.7235 8.8,0.9686 20.08,2.1639 25.0667,2.6563 4.9866,0.4923 15.7866,1.665 24,2.6058 8.2133,0.9409 19.3426,2.1301 24.7318,2.6428 5.3892,0.5127 10.2714,1.2244 10.8494,1.5816 0.5779,0.3572 1.8593,2.9245 2.8476,5.7051 0.9882,2.7806 2.186,6.0156 2.6616,7.189 0.4757,1.1733 1.1111,3.0933 1.4121,4.2666 0.301,1.1734 2.5272,7.6534 4.9473,14.4 11.9975,33.4468 13.3346,39.407 9.8157,43.7527 -1.9898,2.4573 -2.8205,2.6473 -11.5712,2.6473 -5.1852,0 -11.5877,-0.6398 -14.2277,-1.4219 -2.64,-0.782 -7.44,-2.2006 -10.6666,-3.1524 -3.2267,-0.9518 -6.3227,-2.1119 -6.88,-2.5781 -0.5574,-0.4662 -1.8457,-0.8476 -2.8631,-0.8476 -1.0172,0 -4.8812,-1.2594 -8.5866,-2.7986 -3.7053,-1.5393 -8.417,-3.4917 -10.4703,-4.3388 -4.6387,-1.9137 -6.8559,-2.8342 -12.2667,-5.0926 -2.3467,-0.9795 -5.2267,-2.1768 -6.4,-2.6607 -1.1733,-0.4839 -6.4533,-2.1913 -11.7333,-3.7942 -5.28,-1.603 -10.8,-3.2961 -12.2667,-3.7625 -5.7951,-1.8428 -25.4398,-5.7465 -41.0667,-8.1605 -16.7085,-2.5811 -75.202,-2.5799 -90.6666,0 -5.8667,0.9794 -14.0267,2.3136 -18.1334,2.9647 -24.0182,3.8083 -53.1286,12.9445 -80.5485,25.2798 -2.6316,1.1839 -8.3848,3.438 -12.7848,5.0092 -4.4,1.5711 -8.96,3.2639 -10.1333,3.7616 -1.1734,0.4977 -4.7734,1.6726 -8,2.6107 -3.2267,0.9381 -7.3067,2.1246 -9.0667,2.6366 -17.1138,4.9781 -43.4356,8.61 -62.4,8.61 -19.0497,0 -46.5301,-3.812 -62.4,-8.656 -8.5233,-2.6015 -22.8152,-7.3188 -25.6386,-8.4624 -4.9741,-2.0148 -8.3185,-3.3633 -10.6281,-4.2855 -2.7451,-1.0961 -8.4591,-3.4621 -13.8666,-5.7417 -7.5125,-3.167 -8.4649,-3.548 -12.2667,-4.9067 -2.0533,-0.7339 -5.1733,-1.9241 -6.9333,-2.6448 -13.2375,-5.4209 -44.41636,-12.7732 -67.20006,-15.8465 -28.8382,-3.89 -74.0587,-5.296 -88.6221,-2.7554 -7.664,1.337 -20.2676,4.1142 -23.9112,5.2688 -1.4667,0.4647 -5.5467,1.7203 -9.0667,2.79 -3.52,1.0698 -6.856,2.3265 -7.4133,2.7926 -0.5573,0.4662 -2.089,0.8476 -3.4037,0.8476 -1.3147,0 -2.6642,0.4431 -2.9989,0.9846 -0.3347,0.5416 -2.1473,1.3226 -4.0279,1.7357 -1.8807,0.413 -4.1552,1.1318 -5.0545,1.5972 -0.8992,0.4654 -4.995,2.1481 -9.1016,3.7394 -4.1067,1.5912 -8.9067,3.4774 -10.6667,4.1914 -1.76,0.7141 -4.88,1.9067 -6.9333,2.6501 -2.0534,0.7435 -5.1734,1.9602 -6.9334,2.7039 -1.76,0.7437 -5.12,1.9539 -7.4666,2.6894 -2.3467,0.7355 -5.2267,1.7 -6.4,2.1433 -11.4017,4.3079 -32.1987,9.9701 -48,13.0684 -15.9663,3.1308 -21.324,3.8589 -33.0667,4.4938 -6.4533,0.3489 -13.1733,0.7794 -14.9333,0.9566 -1.76,0.1772 -9.44,-0.04 -17.0667,-0.4836 z m 500.75646,-189.3972 c 12.7698,-10.74512 12.7256,-32.00106 -0.1382,-66.53961 -2.4102,-6.47091 -13.8559,-29.18514 -16.4922,-32.72883 -1.3893,-1.86752 -2.5261,-3.66209 -2.5261,-3.98792 0,-1.173 -13.2838,-19.4321 -19.0731,-26.21658 -10.9464,-12.82843 -23.6162,-23.46625 -33.7269,-28.31799 -5.9614,-2.86063 -18.9446,-2.88207 -23.6424,-0.039 -4.4194,2.67452 -5.2385,4.7082 -6.8464,16.9974 -1.0816,8.26718 -1.0834,12.30472 -0.01,20.51461 0.7356,5.62189 1.7215,11.50189 2.1911,13.06666 3.7236,12.40819 4.854,15.77515 5.5928,16.65837 0.4662,0.55733 0.8476,1.6996 0.8476,2.53837 0,3.99429 15.9575,32.32399 25.938,46.0483 4.8261,6.63646 29.9725,32 31.7261,32 0.6296,0 2.7182,1.2 4.6411,2.66666 1.9228,1.46667 3.7834,2.66667 4.1345,2.66667 0.3511,0 2.456,1.08 4.6775,2.4 9.7874,5.81554 17.5699,6.59459 22.7059,2.27294 z m -449.19676,-3.56569 c 0.9755,-0.51034 3.6936,-1.7516 6.0403,-2.75835 21.6216,-9.27589 50.4799,-46.0903 67.1193,-85.62377 5.6614,-13.45094 7.1945,-18.34956 10.2416,-32.72513 2.5079,-11.83158 2.6014,-17.65969 0.4031,-25.13973 -2.1737,-7.39623 -5.787,-12.15112 -11.4158,-15.02271 -3.9575,-2.01899 -4.9882,-2.1352 -9.1248,-1.02883 -15.0701,4.03063 -33.9415,19.27797 -52.5105,42.42637 -4.0398,5.03612 -10.5796,14.19791 -10.5796,14.82136 0,0.37448 -1.08,2.18822 -2.4,4.03053 -2.5983,3.62648 -3.3267,4.90748 -9.1998,16.17968 -6.8623,13.17068 -12.1907,27.66778 -15.9819,43.48197 -1.6311,6.80414 -1.521,24.89004 0.1813,29.77679 3.2358,9.28872 10.8135,14.17974 20.2935,13.09832 2.8378,-0.32372 5.9578,-1.00615 6.9333,-1.5165 z"
     id="path20"
     inkscape:connector-curvature="0" />
</svg>
